<?xml version="1.0" standalone="no"?>
<!DOCTYPE svg PUBLIC "-//W3C//DTD SVG 20010904//EN"
 "http://www.w3.org/TR/2001/REC-SVG-20010904/DTD/svg10.dtd">
<svg version="1.0" xmlns="http://www.w3.org/2000/svg"
 width="512.000000pt" height="512.000000pt" viewBox="0 0 512.000000 512.000000"
 preserveAspectRatio="xMidYMid meet">

<g transform="translate(0.000000,512.000000) scale(0.100000,-0.100000)"
fill="#000000" stroke="none">
<path d="M2540 4233 c-8 -3 -103 -57 -210 -118 -107 -62 -409 -235 -670 -384
-261 -150 -485 -283 -497 -297 l-23 -25 0 -823 c0 -770 1 -825 17 -845 10 -11
122 -80 248 -154 1081 -628 1135 -659 1163 -655 33 5 1370 781 1395 810 16 19
17 74 17 840 0 550 -3 826 -10 839 -14 26 0 18 -705 421 -572 328 -699 399
-707 397 -2 0 -10 -3 -18 -6z m505 -493 c242 -140 486 -280 543 -313 57 -33
100 -63 95 -67 -15 -15 -1112 -640 -1123 -640 -11 0 -1107 625 -1123 640 -5 4
166 108 380 231 213 122 469 269 567 326 163 94 181 102 200 90 12 -8 219
-128 461 -267z m-1434 -712 c145 -83 395 -227 554 -319 l290 -168 3 -666 c1
-366 0 -665 -2 -665 -2 0 -201 114 -442 253 -242 139 -491 283 -554 319 l-115
66 -3 666 c-1 366 0 666 2 666 2 0 122 -68 267 -152z m2169 -512 l0 -664 -342
-198 c-189 -108 -439 -253 -556 -320 -117 -68 -215 -124 -218 -124 -2 0 -3
300 -2 666 l3 665 555 320 c305 175 556 319 557 319 2 0 3 -299 3 -664z"/>
</g>
</svg>

